# xmcd CD database file
#
# Track frame offsets:
#	150
#	29975
#	65175
#	87517
#	100432
#	142235
#	166900
#	192775
#	221335
#	253772
#
# Disc length: 3697 seconds
#
# Revision: 8
# Processed by: cddbd v1.5.2PL0 Copyright (c) Steve Scherf et al.
# Submitted via: CDex 1.70beta2
#
DISCID=9f0e6f0a
DTITLE=Ozzy Osbourne - LIVE and LOUD (JAPANESE EDITION) DISC2
DYEAR=1993
DGENRE=Heavy Metal
TTITLE0=Shot In The Dark
TTITLE1=No More Tears
TTITLE2=Miracle Man
TTITLE3=Drum Solo
TTITLE4=War Pigs
TTITLE5=Bark At The Moon
TTITLE6=Mama, I'm Coming Home
TTITLE7=Crazy Train
TTITLE8=Black Sabbath
TTITLE9=Changes
EXTD=YEAR: 1993
EXTT0=
EXTT1=
EXTT2=
EXTT3=
EXTT4=
EXTT5=
EXTT6=
EXTT7=
EXTT8=
EXTT9=
PLAYORDER=
